<svg xmlns="http://www.w3.org/2000/svg" width="48" height="48" viewBox="0 0 48 48"><rect width="48" height="48" fill="none"/><path d="M15.124,9.842a2.935,2.935,0,0,1,2.935-2.935h0a2.935,2.935,0,0,1,2.935,2.935v8.375a8.872,8.872,0,1,0-5.87,0Z" transform="translate(-3.452 4.03)" fill="#ffd41a"/><path d="M21.336,23.656l-5.87,3.389V16.864a8.886,8.886,0,0,1-5.72-6.422A6.641,6.641,0,0,0,7.028,15.2q-.233,2.52-.234,5.1t.234,5.105a6.668,6.668,0,0,0,5.394,5.921,54.939,54.939,0,0,0,5.959.8l5.89-3.4a2.935,2.935,0,1,0-2.936-5.083Z" transform="translate(-3.794 5.432)" fill="#25b7c6"/><path d="M36.761,15.449a6.667,6.667,0,0,0-5.394-5.921,54.6,54.6,0,0,0-5.912-.8v.007a8.875,8.875,0,0,1-5.937,8.375h0l7.341,4.248A2.933,2.933,0,0,1,28.324,23.9v8.175q1.536-.206,3.043-.494a6.668,6.668,0,0,0,5.394-5.921q.233-2.522.234-5.105T36.761,15.449Z" transform="translate(-1.996 5.187)" fill="#a233b7"/><path d="M-8998.415-266.916v-1.958c0-1.43.528-2.161,1.578-2.161a1.373,1.373,0,0,1,1.323.89,1.376,1.376,0,0,1,1.439-1.084c.916,0,1.745.583,1.745,2.161v2.152Zm3.369-1.967v.944h1.834v-1.068c0-.82-.334-1.2-.917-1.2C-8994.772-270.206-8995.046-269.784-8995.046-268.883Zm-2.486.079v.865h1.6v-1c0-.759-.344-1.075-.845-1.075C-8997.252-270.012-8997.532-269.775-8997.532-268.8Zm-.883-3.245v-3.731h.89v2.708h1.605v-2.443h.883v2.443h1.825v-2.708h.883v3.731Zm0-4.494v-4.526h.89v1.748h5.2v1.023h-5.2v1.755Zm0-6.495v-.969l6.086-2.118v1.086l-1.26.413v2.2l1.26.413v1.1Zm1.481-.483,2.462.811v-1.624Z" transform="translate(9037.83 302.249)" fill="#9499a3" stroke="rgba(0,0,0,0)" stroke-miterlimit="10" stroke-width="1"/></svg>