<svg xmlns="http://www.w3.org/2000/svg" width="110" height="40" viewBox="0 0 110 40"><rect width="110" height="40" fill="none"/><path d="M-7562.656-1572.677a3.929,3.929,0,0,1-2.884-1.3,4.985,4.985,0,0,1-1.25-4.061,7.322,7.322,0,0,1,1.341-3.3,3.309,3.309,0,0,1,2.7-1.059c.5,0,.862.284.555.576-1.366,1.3-2.482,2.594-2.431,4.866.145,1.057.769,2.114,1.973,2.114,2.522,0,2.354-3.172,2.4-5.191V-1585a4.8,4.8,0,0,1-2.62.792,4.86,4.86,0,0,1-4.78-4.948,5.2,5.2,0,0,1,1.946-3.964,4.618,4.618,0,0,1,2.834-.938,5.225,5.225,0,0,1,4.758,3.268l.048,1.635v9.37c-.073,3.363-.528,4.71-1.322,5.672a4.316,4.316,0,0,1-3.218,1.442Zm-2.837-16.484a2.676,2.676,0,0,0,2.619,2.715,2.619,2.619,0,0,0,2.62-2.715,2.642,2.642,0,0,0-2.62-2.692A2.689,2.689,0,0,0-7565.493-1589.161Zm-8.252,16.484a3.933,3.933,0,0,1-2.884-1.3,4.979,4.979,0,0,1-1.248-4.061,7.306,7.306,0,0,1,1.343-3.3,3.3,3.3,0,0,1,2.694-1.059c.5,0,.862.284.555.576-1.366,1.3-2.482,2.594-2.431,4.866.145,1.057.769,2.114,1.971,2.114,2.524,0,2.356-3.172,2.4-5.191V-1585a4.812,4.812,0,0,1-2.619.792,4.862,4.862,0,0,1-4.783-4.948,5.208,5.208,0,0,1,1.946-3.964,4.621,4.621,0,0,1,2.837-.938,5.224,5.224,0,0,1,4.757,3.268l.048,1.635v9.37c-.072,3.363-.528,4.71-1.322,5.672a4.322,4.322,0,0,1-3.22,1.442Zm-2.834-16.484a2.676,2.676,0,0,0,2.619,2.715,2.619,2.619,0,0,0,2.619-2.715,2.642,2.642,0,0,0-2.619-2.692A2.688,2.688,0,0,0-7576.58-1589.161Zm-15.837,4.254.025-8.437c0-.984,2.136-.87,2.136,0v8.438c0,.44-.593.7-1.157.7C-7591.927-1584.209-7592.417-1584.423-7592.417-1584.907Zm-8.789,0v-11.366a4.768,4.768,0,0,1,4.758-4.758,4.54,4.54,0,0,1,1.393.218c1.705.526.891,2.619,0,2.26a3.863,3.863,0,0,0-1.37-.315h-.047a2.625,2.625,0,0,0-2.572,2.594v2.234h2.85a1.033,1.033,0,0,1,1.082,1.009,1.028,1.028,0,0,1-1.082.984h-2.85v7.138c0,.44-.593.7-1.157.7C-7600.716-1584.209-7601.206-1584.423-7601.206-1584.907Zm46.625-.219a5.148,5.148,0,0,1-1.946-4.155,4.739,4.739,0,0,1,4.733-4.782,4.8,4.8,0,0,1,4.014,2.115,2.88,2.88,0,0,1,.408,1.393c0,1.585-.811,2.331-2.74,2.331h-1.923c-.793.023-.816-1.753,0-1.753h2.452c.313-1.6-2.194-2.558-3.676-1.515-1.826,1.274-1.152,5.141,1.465,5.141a2.4,2.4,0,0,0,1.682-.576c.96-.841,2.379.145,2.019.961a3.3,3.3,0,0,1-1.778,1.393,4.816,4.816,0,0,1-1.923.361A4.655,4.655,0,0,1-7554.581-1585.127Zm-28.121.219v-6.272c0-.7-1.6-.925-2.466-.673a.718.718,0,0,0-.505.649v6.3c0,.839-2.114,1.007-2.137,0v-6.32a2.876,2.876,0,0,1,2.857-2.837c.338,0,1.458,0,1.748.025a2.893,2.893,0,0,1,2.642,2.835v6.3c0,.439-.578.694-1.133.694C-7582.2-1584.213-7582.691-1584.426-7582.7-1584.907Zm37.43-.027v-8.625c0-.7,2.116-.7,2.116,0h1.44a2.781,2.781,0,0,1,2.571,1.705,2.738,2.738,0,0,1,.216,1.082c0,.576-.216,1.1-.914,1.1a1.061,1.061,0,0,1-.792-.313,1.39,1.39,0,0,1-.313-1.032c0-.1.025-.624-.769-.672h-1.44v6.749c0,.434-.592.706-1.149.706C-7544.8-1584.228-7545.26-1584.438-7545.272-1584.934Zm-47.411-12.032a1.34,1.34,0,0,1,1.372-1.368,1.368,1.368,0,0,1,1.368,1.368,1.39,1.39,0,0,1-1.368,1.395A1.361,1.361,0,0,1-7592.683-1596.965Z" transform="translate(7637.342 1611.738)" fill="#293347" stroke="rgba(0,0,0,0)" stroke-miterlimit="10" stroke-width="1"/><path d="M14.382,8.733A2.568,2.568,0,0,1,16.95,6.165h0a2.568,2.568,0,0,1,2.568,2.568v7.328a7.763,7.763,0,1,0-5.136,0Z" transform="translate(-4.794 0.03)" fill="#ffd41a"/><path d="M19.518,22l-5.136,2.965V16.061a7.775,7.775,0,0,1-5.005-5.619A5.811,5.811,0,0,0,7,14.609q-.2,2.205-.2,4.466T7,23.542a5.834,5.834,0,0,0,4.72,5.181,48.071,48.071,0,0,0,5.214.7l5.154-2.975A2.568,2.568,0,1,0,19.518,22Z" transform="translate(-4.794 0.03)" fill="#25b7c6"/><path d="M34.606,14.609a5.833,5.833,0,0,0-4.72-5.181,47.779,47.779,0,0,0-5.173-.7v.006a7.766,7.766,0,0,1-5.195,7.328h0l6.423,3.717A2.567,2.567,0,0,1,27.223,22v7.153q1.344-.18,2.663-.432a5.834,5.834,0,0,0,4.72-5.181q.2-2.207.205-4.467T34.606,14.609Z" transform="translate(-4.794 0.03)" fill="#a233b7"/><path d="M-8924.4-267.936v-1.711c0-1.25.463-1.888,1.38-1.888a1.2,1.2,0,0,1,1.155.777,1.2,1.2,0,0,1,1.257-.947c.8,0,1.527.508,1.527,1.888v1.881Zm2.945-1.72v.824h1.6v-.932c0-.717-.294-1.048-.8-1.048C-8921.212-270.812-8921.451-270.443-8921.451-269.657Zm-2.175.069v.755h1.4v-.869c0-.663-.3-.941-.741-.941C-8923.38-270.642-8923.626-270.434-8923.626-269.587Zm-.771-2.836v-3.259h.779v2.365h1.4v-2.134h.771v2.134h1.6v-2.365h.771v3.259Zm0-3.926V-280.3h.779v1.525h4.54v.894h-4.54v1.534Zm0-5.673v-.849l5.319-1.848v.947l-1.1.363v1.917l1.1.363v.956Zm1.294-.423,2.15.708v-1.418Z" transform="translate(9026.793 295.439)" fill="#9499a3" stroke="rgba(0,0,0,0)" stroke-miterlimit="10" stroke-width="1"/></svg>