<svg xmlns="http://www.w3.org/2000/svg" width="24" height="24" viewBox="0 0 24 24"><rect width="24" height="24" fill="none"/><g transform="translate(1 1)"><g fill="#ffe200" stroke="#ffe201" stroke-width="1"><circle cx="11" cy="11" r="11" stroke="none"/><circle cx="11" cy="11" r="11.5" fill="none"/></g><path d="M19.2,12A8.2,8.2,0,1,0,11,20.2c.054,0,.106-.007.16-.008l1.645-.95A1.81,1.81,0,1,0,11,16.106L7.373,18.2V6.749a1.811,1.811,0,0,1,3.622,0v5.167h0l4.528,2.621a1.812,1.812,0,0,1,.9,1.567v2.027A8.176,8.176,0,0,0,19.2,12Z" transform="translate(0 -1)" fill="#f29a0e"/></g></svg>