<svg xmlns="http://www.w3.org/2000/svg" xmlns:xlink="http://www.w3.org/1999/xlink" width="24" height="24" viewBox="0 0 24 24"><defs><linearGradient id="a" x1="-92.628" y1="60.346" x2="-92.578" y2="60.345" gradientUnits="objectBoundingBox"><stop offset="0" stop-color="#ed7585"/><stop offset="1" stop-color="#c71a31"/></linearGradient><linearGradient id="b" x1="-92.628" y1="163.569" x2="-92.578" y2="163.565" gradientUnits="objectBoundingBox"><stop offset="0" stop-color="#ffa5b1"/><stop offset="1" stop-color="#e02b43"/></linearGradient><linearGradient id="c" x1="-180.538" y1="163.567" x2="-180.439" y2="163.567" gradientUnits="objectBoundingBox"><stop offset="0" stop-color="#e84157"/><stop offset="1" stop-color="#ff91a1"/></linearGradient></defs><rect width="24" height="24" fill="none"/><path d="M13.215,20H7.258a2,2,0,0,1-2-2.125L5.82,8.938a1,1,0,0,1,1-.938H8v2a1,1,0,0,0,2,0V8h4v2a1,1,0,0,0,2,0V8h1.182a1,1,0,0,1,1,.938L18.371,12h2l-.2-3.187A3,3,0,0,0,17.182,6H16A4,4,0,0,0,8,6H6.818A3,3,0,0,0,3.824,8.813L3.266,17.75A4,4,0,0,0,7.258,22h7.814ZM12,4a2,2,0,0,1,2,2H10A2,2,0,0,1,12,4Z" fill="rgba(26,32,46,0.87)"/><path d="M17.03,21.85l-5.246-5.663,2.624-2.98h5.245l2.563,2.98Z" fill="url(#a)"/><path d="M11.784,16.187l2.624-2.98h5.245l2.563,2.98Z" fill="url(#b)"/><path d="M14.7,16.187l-.3-2.98h5.245l-.3,2.98Z" fill="url(#c)"/><path d="M14.7,16.187l2.325-2.98,2.325,2.98Z" fill="#ffb5bf"/><path d="M17.03,21.85,14.7,16.187h4.65Z" fill="#f27485"/></svg>