<svg xmlns="http://www.w3.org/2000/svg" width="61.477" height="57.106" viewBox="0 0 61.477 57.106"><g transform="translate(-159.88 -455.518)"><path d="M220.9,479.769A12.8,12.8,0,0,0,210.549,468.4a105.541,105.541,0,0,0-14.941-1.768l6.533-7.2a2.343,2.343,0,0,0-3.47-3.15l-8.053,8.87-8.053-8.87a2.343,2.343,0,0,0-3.47,3.15l6.533,7.2a105.541,105.541,0,0,0-14.941,1.768,12.8,12.8,0,0,0-10.357,11.368q-.447,4.841-.451,9.8t.451,9.8a12.8,12.8,0,0,0,10.357,11.368,106.311,106.311,0,0,0,39.862,0A12.8,12.8,0,0,0,220.9,499.371q.449-4.84.452-9.8T220.9,479.769Zm-4.666,19.171a8.148,8.148,0,0,1-6.573,7.2,101.6,101.6,0,0,1-38.1,0,8.148,8.148,0,0,1-6.572-7.2c-.287-3.094-.431-6.246-.431-9.37s.144-6.276.431-9.37a8.148,8.148,0,0,1,6.572-7.2,101.6,101.6,0,0,1,38.1,0,8.148,8.148,0,0,1,6.573,7.2c.286,3.094.431,6.246.431,9.37S216.525,495.845,216.239,498.94Z" fill="rgba(26,32,46,0.6)"/><path d="M212.8,488.96a1.874,1.874,0,0,0-2.651,0l-2.273,2.273-2.273-2.273a1.874,1.874,0,0,0-2.651,2.651l2.273,2.273-2.273,2.273a1.874,1.874,0,1,0,2.651,2.651l2.273-2.273,2.273,2.273a1.874,1.874,0,0,0,2.651-2.651l-2.273-2.273,2.273-2.273A1.874,1.874,0,0,0,212.8,488.96Z" transform="translate(-2.665 -2.061)" fill="rgba(26,32,46,0.6)"/><path d="M181.657,488.96a1.875,1.875,0,0,0-2.652,0l-2.273,2.273-2.273-2.273a1.874,1.874,0,1,0-2.651,2.651l2.273,2.273-2.273,2.273a1.874,1.874,0,1,0,2.651,2.651l2.273-2.273,2.273,2.273a1.875,1.875,0,0,0,2.652-2.651l-2.273-2.273,2.273-2.273A1.874,1.874,0,0,0,181.657,488.96Z" transform="translate(-0.713 -2.061)" fill="rgba(26,32,46,0.6)"/><path d="M192.175,499.97a8.147,8.147,0,0,0-7.3,4.508,1.875,1.875,0,1,0,3.44,1.492,4.438,4.438,0,0,1,7.723,0,1.875,1.875,0,1,0,3.44-1.492A8.146,8.146,0,0,0,192.175,499.97Z" transform="translate(-1.556 -2.785)" fill="rgba(26,32,46,0.6)"/></g></svg>