<svg xmlns="http://www.w3.org/2000/svg" width="21" height="15.916" viewBox="0 0 21 15.916">
  <g id="图层_2" data-name="图层 2" transform="translate(0)">
    <g id="Discord_Logos" data-name="Discord Logos" transform="translate(0)">
      <g id="Discord_Logo_-_Large_-_White" data-name="Discord Logo - Large - White">
        <path id="パス_314" data-name="パス 314" d="M17.789,1.333A17.368,17.368,0,0,0,13.457,0,11.9,11.9,0,0,0,12.9,1.128a16.134,16.134,0,0,0-4.808,0A11.953,11.953,0,0,0,7.539,0,17.49,17.49,0,0,0,3.2,1.336,17.5,17.5,0,0,0,.089,13.248h0A17.464,17.464,0,0,0,5.4,15.916a12.834,12.834,0,0,0,1.138-1.835,11.3,11.3,0,0,1-1.792-.856c.15-.109.3-.221.439-.33a12.482,12.482,0,0,0,10.624,0c.144.117.291.23.439.33a11.344,11.344,0,0,1-1.8.857,12.718,12.718,0,0,0,1.138,1.833,17.384,17.384,0,0,0,5.317-2.666h0A17.494,17.494,0,0,0,17.789,1.333ZM7.012,10.85a2.008,2.008,0,0,1-1.891-2.1,2,2,0,0,1,1.888-2.1A1.988,1.988,0,0,1,8.9,8.754,2.006,2.006,0,0,1,7.012,10.85Zm6.977,0a2.006,2.006,0,0,1-1.89-2.1,2,2,0,0,1,1.89-2.1,1.983,1.983,0,0,1,1.888,2.1A2,2,0,0,1,13.988,10.85Z" transform="translate(0)" fill="#5865f2"/>
      </g>
    </g>
  </g>
</svg>
