<svg xmlns="http://www.w3.org/2000/svg" width="24" height="24" stroke="rgba(0,0,0,0)" stroke-miterlimit="10" xmlns:v="https://vecta.io/nano"><path d="M18 6h-4.347l2.755-2.561a.6.6 0 1 0-.816-.878l-3.575 3.322-3.611-3.324a.6.6 0 0 0-.812.882L10.372 6H6a4 4 0 0 0-4 4v7a4 4 0 0 0 4 4h12a4 4 0 0 0 4-4v-7a4 4 0 0 0-4-4zm2.8 11a2.8 2.8 0 0 1-2.8 2.8H6A2.8 2.8 0 0 1 3.2 17v-7A2.8 2.8 0 0 1 6 7.2h12a2.8 2.8 0 0 1 2.8 2.8z" fill="rgba(255,255,255,0.87)"/><path d="M20.8 17a2.8 2.8 0 0 1-2.8 2.8H6A2.8 2.8 0 0 1 3.2 17v-7A2.8 2.8 0 0 1 6 7.2h12a2.8 2.8 0 0 1 2.8 2.8z" fill="#a133b7"/><path d="M15.861 14.174l-2.869-1.101 1.927-5.021-6.782 4.803 2.869 1.101-1.927 5.021z" fill="#fff"/></svg>