<svg xmlns="http://www.w3.org/2000/svg" width="71.429" height="76" viewBox="0 0 71.429 76"><g transform="translate(141.476 -561)"><path d="M-72.428,629.4h-7.143L-98.2,561h-15.126l-18.628,68.4H-139.1a2.332,2.332,0,0,0-2.381,2.28v3.04A2.332,2.332,0,0,0-139.1,637h66.667a2.332,2.332,0,0,0,2.381-2.28v-3.04A2.332,2.332,0,0,0-72.428,629.4Z" transform="translate(0)" fill="#eba70c"/><g transform="translate(-128.226 574.68)"><path d="M-89.091,579h-22.577l-3.726,13.68h30.028Z" transform="translate(122.844 -579)" fill="#fff"/><path d="M-83.577,615h-37.479l-3.726,13.68h44.93Z" transform="translate(124.782 -587.64)" fill="#fff"/></g></g></svg>