<svg xmlns="http://www.w3.org/2000/svg" width="20" height="16.251" viewBox="0 0 20 16.251">
  <g id="Logo_1_" transform="translate(-1 -1.497)">
    <path id="white_background" d="M18.952,5.543c.012.176.012.353.012.531A11.6,11.6,0,0,1,7.29,17.749v0A11.616,11.616,0,0,1,1,15.906a8.346,8.346,0,0,0,.977.059,8.239,8.239,0,0,0,5.1-1.76,4.108,4.108,0,0,1-3.833-2.849,4.09,4.09,0,0,0,1.853-.071A4.1,4.1,0,0,1,1.8,7.263V7.211a4.077,4.077,0,0,0,1.862.514,4.108,4.108,0,0,1-1.27-5.479,11.646,11.646,0,0,0,8.457,4.287A4.107,4.107,0,0,1,17.842,2.79a8.234,8.234,0,0,0,2.606-1,4.119,4.119,0,0,1-1.8,2.269A8.16,8.16,0,0,0,21,3.418,8.336,8.336,0,0,1,18.952,5.543Z" transform="translate(0)" fill="#1d9bf0"/>
  </g>
</svg>
