<svg id="Image-Logo-fingger-Vertical" xmlns="http://www.w3.org/2000/svg" width="80" height="96" viewBox="0 0 80 96">
  <rect id="長方形_759" data-name="長方形 759" width="80" height="96" fill="none"/>
  <g id="fingger" transform="translate(-76.743 -4.835)">
    <g id="Symbol" transform="translate(96.129 10.481)">
      <path id="パス_20" data-name="パス 20" d="M216.579,266.341a3.816,3.816,0,0,1,3.818-3.815h0a3.816,3.816,0,0,1,3.818,3.815v10.884a11.54,11.54,0,1,0-7.635,0Z" transform="translate(-205.3 -254.81)" fill="#ffd41a"/>
      <path id="パス_21" data-name="パス 21" d="M186.772,434.255l-7.635,4.405V425.428a11.554,11.554,0,0,1-7.44-8.347,8.627,8.627,0,0,0-3.534,6.189q-.3,3.277-.306,6.635t.306,6.635a8.666,8.666,0,0,0,7.016,7.7,71.36,71.36,0,0,0,7.751,1.046l7.66-4.419a3.816,3.816,0,1,0-3.818-6.608Z" transform="translate(-167.857 -403.012)" fill="#25b7c6"/>
      <path id="パス_22" data-name="パス 22" d="M408.284,396.428a8.667,8.667,0,0,0-7.016-7.7,71.331,71.331,0,0,0-7.689-1.042s0,.007,0,.01a11.536,11.536,0,0,1-7.722,10.884h0l9.548,5.522a3.814,3.814,0,0,1,1.905,3.3v10.625q2-.267,3.958-.642a8.667,8.667,0,0,0,7.016-7.7q.3-3.277.305-6.635T408.284,396.428Z" transform="translate(-366.941 -376.17)" fill="#a233b7"/>
    </g>
    <g id="Type" transform="translate(80.743 61.863)">
      <g id="グループ_3" data-name="グループ 3">
        <path id="パス_12" data-name="パス 12" d="M1143.081,540.477a5.4,5.4,0,0,0-3.305,1.089,6.041,6.041,0,0,0-2.269,4.607,5.564,5.564,0,0,0,8.627,4.83v5.78c-.056,2.345.14,6.031-2.8,6.031-1.4,0-2.129-1.229-2.3-2.457-.061-2.64,1.24-4.137,2.832-5.653.358-.341-.068-.669-.647-.669a3.858,3.858,0,0,0-3.141,1.23,8.472,8.472,0,0,0-1.565,3.836,5.777,5.777,0,0,0,1.457,4.719,4.586,4.586,0,0,0,3.361,1.508h.056a5.036,5.036,0,0,0,3.753-1.675c.925-1.117,1.457-2.68,1.541-6.589V546.173l-.056-1.9A6.09,6.09,0,0,0,1143.081,540.477Zm0,8.851a3.142,3.142,0,0,1,0-6.282,3.142,3.142,0,0,1,0,6.282Z" transform="translate(-1111.32 -532.381)" fill="rgba(255,255,255,0.87)"/>
        <path id="パス_13" data-name="パス 13" d="M1333.038,540.477a5.4,5.4,0,0,0-3.305,1.089,6.041,6.041,0,0,0-2.269,4.607,5.564,5.564,0,0,0,8.627,4.83v5.78c-.056,2.345.14,6.031-2.8,6.031-1.4,0-2.129-1.229-2.3-2.457-.061-2.64,1.24-4.137,2.832-5.653.358-.341-.068-.669-.647-.669a3.858,3.858,0,0,0-3.141,1.23,8.469,8.469,0,0,0-1.565,3.836,5.777,5.777,0,0,0,1.456,4.719,4.588,4.588,0,0,0,3.361,1.508h.056a5.036,5.036,0,0,0,3.753-1.675c.925-1.117,1.457-2.68,1.541-6.589V546.173l-.056-1.9A6.09,6.09,0,0,0,1333.038,540.477Zm0,8.851a3.142,3.142,0,0,1,0-6.282,3.142,3.142,0,0,1,0,6.282Z" transform="translate(-1288.352 -532.381)" fill="rgba(255,255,255,0.87)"/>
        <path id="パス_14" data-name="パス 14" d="M1523.635,549.444a2.8,2.8,0,0,0,1.96-.67c1.12-.977,2.773.167,2.353,1.117a3.839,3.839,0,0,1-2.073,1.619,5.627,5.627,0,0,1-2.241.419,5.45,5.45,0,0,1-3.249-1.061,5.976,5.976,0,0,1-2.269-4.83,5.514,5.514,0,0,1,5.517-5.556,5.6,5.6,0,0,1,4.677,2.457,3.335,3.335,0,0,1,.476,1.619c0,1.843-.943,2.708-3.193,2.708h-2.24c-.924.028-.952-2.036,0-2.036h2.857c.366-1.865-2.556-2.974-4.285-1.761C1519.8,544.95,1520.583,549.444,1523.635,549.444Z" transform="translate(-1466.033 -532.387)" fill="rgba(255,255,255,0.87)"/>
        <path id="パス_15" data-name="パス 15" d="M1718.088,542.764a3.145,3.145,0,0,1,.252,1.256c0,.67-.252,1.284-1.064,1.284a1.247,1.247,0,0,1-.924-.363,1.623,1.623,0,0,1-.364-1.2c0-.112.028-.726-.9-.782h-1.681V550.8c0,.949-2.437,1.229-2.464,0V540.781c0-.81,2.464-.81,2.464,0h1.681A3.24,3.24,0,0,1,1718.088,542.764Z" transform="translate(-1645.74 -532.099)" fill="rgba(255,255,255,0.87)"/>
        <path id="パス_16" data-name="パス 16" d="M898.707,468.9a1.559,1.559,0,0,1,1.6-1.591,1.593,1.593,0,0,1,1.6,1.591,1.617,1.617,0,0,1-1.6,1.619A1.582,1.582,0,0,1,898.707,468.9Z" transform="translate(-888.77 -464.177)" fill="rgba(255,255,255,0.87)"/>
        <path id="パス_17" data-name="パス 17" d="M988.108,551.121v-7.288c0-.81-1.869-1.075-2.875-.782a.832.832,0,0,0-.588.754v7.316c0,.977-2.465,1.172-2.493,0v-7.344a3.348,3.348,0,0,1,3.333-3.294c.392,0,1.7,0,2.035.028a3.367,3.367,0,0,1,3.081,3.294v7.316C990.6,552.1,988.136,552.294,988.108,551.121Z" transform="translate(-966.537 -532.387)" fill="rgba(255,255,255,0.87)"/>
        <path id="パス_18" data-name="パス 18" d="M903.264,541.671c0-1.145,2.493-1.012,2.493,0v9.8c0,.977-2.521,1.181-2.521,0Z" transform="translate(-892.99 -532.74)" fill="rgba(255,255,255,0.87)"/>
        <path id="パス_19" data-name="パス 19" d="M752.665,439.853V426.646a5.549,5.549,0,0,1,5.546-5.528,5.337,5.337,0,0,1,1.624.251c1.989.614,1.04,3.045,0,2.628a4.487,4.487,0,0,0-1.6-.367h-.056a3.056,3.056,0,0,0-3,3.015v2.6h3.322a1.163,1.163,0,1,1,0,2.317h-3.322v8.293C755.186,440.83,752.665,441.034,752.665,439.853Z" transform="translate(-752.665 -421.119)" fill="rgba(255,255,255,0.87)"/>
      </g>
    </g>
  </g>
</svg>
