<svg xmlns="http://www.w3.org/2000/svg" width="48" height="48" viewBox="0 0 48 48"><rect width="48" height="48" fill="none"/><path d="M15.124,9.842a2.935,2.935,0,0,1,2.935-2.935h0a2.935,2.935,0,0,1,2.935,2.935v8.375a8.872,8.872,0,1,0-5.87,0Z" transform="translate(1.548 4.03)" fill="#ffd41a"/><path d="M21.336,23.656l-5.87,3.389V16.864a8.886,8.886,0,0,1-5.72-6.422A6.641,6.641,0,0,0,7.028,15.2q-.233,2.52-.234,5.1t.234,5.105a6.668,6.668,0,0,0,5.394,5.921,54.939,54.939,0,0,0,5.959.8l5.89-3.4a2.935,2.935,0,1,0-2.936-5.083Z" transform="translate(1.206 5.432)" fill="#25b7c6"/><path d="M36.761,15.449a6.667,6.667,0,0,0-5.394-5.921,54.6,54.6,0,0,0-5.912-.8v.007a8.875,8.875,0,0,1-5.937,8.375h0l7.341,4.248A2.933,2.933,0,0,1,28.324,23.9v8.175q1.536-.206,3.043-.494a6.668,6.668,0,0,0,5.394-5.921q.233-2.522.234-5.105T36.761,15.449Z" transform="translate(3.004 5.187)" fill="#a233b7"/></svg>