<svg id="Icon-Share-Twitter" xmlns="http://www.w3.org/2000/svg" xmlns:xlink="http://www.w3.org/1999/xlink" width="60" height="60" viewBox="0 0 60 60">
  <defs>
    <clipPath id="clip-path">
      <rect id="長方形_921" data-name="長方形 921" width="60" height="60" fill="none"/>
    </clipPath>
  </defs>
  <g id="グループ_481" data-name="グループ 481">
    <g id="グループ_480" data-name="グループ 480" clip-path="url(#clip-path)">
      <path id="パス_478" data-name="パス 478" d="M60,30A30,30,0,1,1,30,0,30,30,0,0,1,60,30" fill="#1d9bf0"/>
    </g>
  </g>
  <g id="グループ_483" data-name="グループ 483">
    <g id="グループ_482" data-name="グループ 482" clip-path="url(#clip-path)">
      <path id="パス_479" data-name="パス 479" d="M100.586,143.154c13.3,0,20.577-11.021,20.577-20.577q0-.47-.021-.935a14.716,14.716,0,0,0,3.608-3.745,14.438,14.438,0,0,1-4.153,1.139,7.257,7.257,0,0,0,3.18-4,14.493,14.493,0,0,1-4.592,1.755,7.238,7.238,0,0,0-12.325,6.6,20.532,20.532,0,0,1-14.907-7.556,7.238,7.238,0,0,0,2.239,9.655,7.18,7.18,0,0,1-3.276-.9c0,.03,0,.06,0,.092a7.235,7.235,0,0,0,5.8,7.09,7.224,7.224,0,0,1-3.266.124,7.24,7.24,0,0,0,6.756,5.023,14.512,14.512,0,0,1-8.982,3.1,14.726,14.726,0,0,1-1.725-.1,20.475,20.475,0,0,0,11.086,3.248" transform="translate(-76.075 -97.33)" fill="#fff"/>
    </g>
  </g>
</svg>
