<svg id="Icon-Share-Facebook" xmlns="http://www.w3.org/2000/svg" xmlns:xlink="http://www.w3.org/1999/xlink" width="60" height="60" viewBox="0 0 60 60">
  <defs>
    <clipPath id="clip-path">
      <rect id="長方形_919" data-name="長方形 919" width="59.88" height="59.96" fill="none"/>
    </clipPath>
    <clipPath id="clip-path-2">
      <rect id="長方形_920" data-name="長方形 920" width="59.999" height="60" fill="none"/>
    </clipPath>
  </defs>
  <g id="グループ_477" data-name="グループ 477" transform="translate(0.12 0.04)">
    <g id="グループ_476" data-name="グループ 476" transform="translate(0 0)" clip-path="url(#clip-path)">
      <path id="パス_476" data-name="パス 476" d="M59.887,29.981A29.944,29.944,0,1,0,25.265,59.6V38.648h-7.6V29.981h7.6V23.376c0-7.514,4.47-11.665,11.31-11.665a45.991,45.991,0,0,1,6.7.586v7.378H39.5c-3.72,0-4.88,2.311-4.88,4.682v5.624h8.3L41.6,38.648H34.622V59.6A29.977,29.977,0,0,0,59.887,29.981" transform="translate(-0.007 -0.002)" fill="#1877f2"/>
    </g>
  </g>
  <g id="グループ_479" data-name="グループ 479">
    <g id="グループ_478" data-name="グループ 478" clip-path="url(#clip-path-2)">
      <path id="パス_477" data-name="パス 477" d="M325.982,226.953l1.33-8.672h-8.32v-5.628c0-2.372,1.162-4.685,4.889-4.685h3.783v-7.383a46.133,46.133,0,0,0-6.715-.586c-6.853,0-11.331,4.153-11.331,11.672v6.609H302v8.672h7.617v20.964a30.325,30.325,0,0,0,9.375,0V226.953Z" transform="translate(-284.305 -188.281)" fill="#fff"/>
    </g>
  </g>
</svg>
