<svg id="Icon-Share-LINE" xmlns="http://www.w3.org/2000/svg" xmlns:xlink="http://www.w3.org/1999/xlink" width="60" height="60" viewBox="0 0 60 60">
  <defs>
    <clipPath id="clip-path">
      <rect id="長方形_918" data-name="長方形 918" width="60" height="60" fill="none"/>
    </clipPath>
  </defs>
  <g id="グループ_475" data-name="グループ 475" clip-path="url(#clip-path)">
    <path id="パス_470" data-name="パス 470" d="M60,30A30,30,0,1,1,30,0,30,30,0,0,1,60,30" fill="#4cc764"/>
    <path id="パス_471" data-name="パス 471" d="M93.133,80.253C93.133,71.291,84.149,64,73.105,64S53.078,71.291,53.078,80.253c0,8.034,7.125,14.763,16.749,16.035.652.141,1.54.43,1.764.988a4.115,4.115,0,0,1,.065,1.811s-.235,1.413-.286,1.715c-.087.506-.4,1.98,1.735,1.08s11.534-6.791,15.736-11.628h0c2.9-3.183,4.293-6.413,4.293-10" transform="translate(-43.126 -52)" fill="#fff"/>
    <path id="パス_472" data-name="パス 472" d="M205.131,137.09a.382.382,0,0,0,.382-.382v-1.421a.384.384,0,0,0-.382-.382h-3.824V133.43h3.824a.382.382,0,0,0,.382-.383v-1.42a.383.383,0,0,0-.382-.382h-3.824V129.77h3.824a.382.382,0,0,0,.382-.382v-1.42a.384.384,0,0,0-.382-.382H199.5a.382.382,0,0,0-.382.382v.008h0V136.7h0v.006a.382.382,0,0,0,.382.382h5.627Z" transform="translate(-161.787 -103.663)" fill="#4cc764"/>
    <path id="パス_473" data-name="パス 473" d="M94.126,137.09a.382.382,0,0,0,.382-.382v-1.421a.383.383,0,0,0-.382-.382H90.3v-6.938a.383.383,0,0,0-.382-.382H88.5a.382.382,0,0,0-.382.382V136.7h0v.006a.382.382,0,0,0,.382.382h5.627Z" transform="translate(-71.595 -103.663)" fill="#4cc764"/>
    <path id="パス_474" data-name="パス 474" d="M130.42,127.585H129a.382.382,0,0,0-.382.382v8.741a.382.382,0,0,0,.382.382h1.42a.382.382,0,0,0,.382-.382v-8.741a.382.382,0,0,0-.382-.382" transform="translate(-104.501 -103.663)" fill="#4cc764"/>
    <path id="パス_475" data-name="パス 475" d="M155.476,127.585h-1.42a.382.382,0,0,0-.382.382v5.192l-4-5.4a.366.366,0,0,0-.031-.04l0,0-.023-.024-.007-.007-.021-.017-.01-.008-.02-.014-.012-.007-.021-.012-.012-.006-.022-.01-.012,0-.023-.007-.014,0-.023,0-.016,0-.021,0h-1.446a.382.382,0,0,0-.382.382v8.741a.382.382,0,0,0,.382.382h1.421a.382.382,0,0,0,.382-.382v-5.19l4,5.407a.389.389,0,0,0,.1.1l0,0,.024.015.011.006.019.009.019.008.012,0,.026.008h.005a.4.4,0,0,0,.1.013h1.413a.382.382,0,0,0,.382-.382v-8.741a.382.382,0,0,0-.382-.382" transform="translate(-119.888 -103.663)" fill="#4cc764"/>
  </g>
</svg>
